<?xml version="1.0" standalone="no"?>
<!DOCTYPE svg PUBLIC "-//W3C//DTD SVG 20010904//EN"
 "http://www.w3.org/TR/2001/REC-SVG-20010904/DTD/svg10.dtd">
<svg version="1.0" xmlns="http://www.w3.org/2000/svg"
 width="500.000000pt" height="500.000000pt" viewBox="0 0 500.000000 500.000000"
 preserveAspectRatio="xMidYMid meet">

<g transform="translate(0.000000,500.000000) scale(0.100000,-0.100000)"
fill="#000000" stroke="none">
<path d="M2383 2961 c-131 -33 -250 -125 -314 -244 l-34 -62 0 -145 0 -145 36
-75 c52 -110 144 -198 249 -238 148 -57 311 -47 410 25 172 122 234 220 252
394 10 92 9 104 -11 158 -12 33 -33 81 -48 107 -34 61 -130 157 -185 185 -103
53 -244 69 -355 40z m272 -141 c14 -43 -8 -50 -146 -50 -103 0 -131 3 -143 16
-19 19 -20 26 -4 42 8 8 56 12 149 12 130 0 138 -1 144 -20z m-320 -80 c141
-33 150 -46 141 -202 -3 -57 -5 -169 -6 -250 l0 -146 -47 14 c-60 18 -173 79
-195 106 -16 18 -18 46 -18 259 0 276 -14 251 125 219z m470 -13 c3 -12 5 -52
3 -87 -3 -65 -3 -65 -33 -65 -29 0 -30 2 -33 49 l-3 49 -56 -7 c-70 -8 -83
-18 -83 -65 0 -48 22 -68 123 -116 42 -20 82 -46 88 -57 17 -31 6 -124 -18
-156 -24 -32 -142 -98 -192 -107 -53 -10 -62 9 -59 125 3 92 4 95 27 98 32 5
41 -12 41 -85 l0 -63 65 32 c67 33 80 51 73 99 -2 19 -21 33 -86 65 -121 60
-122 62 -122 156 0 70 3 82 24 103 13 13 41 27 62 30 22 4 53 11 69 15 17 5
47 9 67 9 31 1 39 -3 43 -22z"/>
<path d="M2280 2492 l0 -188 55 -27 c31 -15 60 -27 65 -27 12 0 14 379 2 396
-5 9 -93 34 -117 34 -3 0 -5 -85 -5 -188z"/>
</g>
</svg>
