<?xml version="1.0" standalone="no"?>
<!DOCTYPE svg PUBLIC "-//W3C//DTD SVG 20010904//EN"
 "http://www.w3.org/TR/2001/REC-SVG-20010904/DTD/svg10.dtd">
<svg version="1.0" xmlns="http://www.w3.org/2000/svg"
 width="1536.000000pt" height="1536.000000pt" viewBox="0 0 1536.000000 1536.000000"
 preserveAspectRatio="xMidYMid meet">

<g transform="translate(0.000000,1536.000000) scale(0.100000,-0.100000)"
fill="#000000" stroke="none">
<path d="M0 7680 l0 -7680 7680 0 7680 0 0 7680 0 7680 -7680 0 -7680 0 0
-7680z m8073 4733 c-7 -2 -21 -2 -30 0 -10 3 -4 5 12 5 17 0 24 -2 18 -5z m55
-40 c77 -21 138 -50 206 -96 131 -89 292 -268 352 -395 l29 -59 55 -5 c119 -9
246 -99 300 -214 62 -129 30 -307 -76 -424 l-22 -25 48 -160 c55 -183 121
-435 149 -575 11 -52 29 -137 40 -187 32 -145 87 -481 111 -673 12 -96 27
-180 33 -186 7 -7 116 -28 242 -49 407 -65 605 -106 1047 -214 57 -13 80 -15
87 -7 15 18 126 242 176 356 175 395 254 656 275 911 13 164 4 241 -44 344
-41 89 -91 138 -186 184 l-75 36 -190 -1 c-173 0 -203 -3 -340 -32 -280 -58
-633 -185 -918 -329 -238 -120 -242 -122 -245 -118 -2 1 -5 15 -8 30 -3 16 -9
36 -15 46 -6 13 -5 21 3 29 22 17 426 215 543 265 225 96 483 175 710 217 158
29 416 31 515 4 94 -25 191 -86 249 -156 104 -125 137 -250 128 -485 -8 -186
-38 -338 -105 -540 -77 -227 -152 -407 -260 -620 l-98 -192 106 -34 c134 -43
455 -155 497 -174 17 -8 34 -15 37 -15 9 0 343 -148 410 -182 l60 -31 46 26
c134 74 308 52 426 -55 100 -92 135 -215 100 -358 l-17 -70 35 -31 c80 -69
174 -236 202 -356 24 -103 15 -266 -19 -362 -39 -109 -93 -199 -174 -295 -273
-321 -764 -590 -1550 -846 -118 -38 -221 -70 -229 -70 -31 0 -22 -31 46 -171
118 -243 231 -550 269 -739 62 -301 50 -499 -40 -699 -36 -80 -167 -215 -249
-256 -249 -126 -561 -126 -1037 1 l-171 46 -35 -35 c-71 -70 -224 -93 -319
-48 -97 47 -166 161 -152 251 l6 38 -58 26 c-31 15 -61 23 -64 19 -4 -5 -15
-39 -25 -78 -55 -216 -188 -582 -313 -862 -175 -390 -425 -744 -628 -889 -247
-177 -538 -179 -790 -6 -68 46 -221 200 -285 287 -236 320 -488 960 -620 1570
-24 116 -26 120 -44 105 -47 -39 -349 -177 -510 -233 -340 -118 -544 -159
-795 -160 -249 -1 -374 39 -496 158 -110 108 -150 228 -148 440 4 325 119 697
348 1124 31 58 55 105 53 107 -1 1 -144 49 -317 107 -309 103 -537 192 -633
249 l-49 29 -33 -30 c-118 -103 -336 -93 -462 23 -92 83 -133 178 -133 307 l0
67 -57 48 c-111 93 -174 159 -239 245 -208 279 -229 572 -63 866 117 206 448
472 804 645 116 56 133 63 285 126 182 76 699 242 751 242 11 0 19 5 19 10 0
6 -23 65 -51 132 -88 208 -173 486 -209 683 -20 105 -22 143 -17 305 4 151 9
197 26 248 39 118 72 174 146 247 81 80 152 125 257 163 66 23 91 26 251 30
107 3 209 0 257 -7 83 -13 296 -62 365 -85 37 -13 41 -12 69 10 46 39 96 56
171 57 77 2 109 -10 170 -65 38 -33 74 -94 81 -137 10 -65 13 -68 71 -92 71
-28 312 -145 330 -161 16 -13 16 -14 33 42 37 119 159 443 227 600 208 485
405 805 630 1024 174 168 301 240 468 265 75 11 193 4 263 -16z m-688 -178
c-7 -9 -15 -13 -19 -10 -3 3 1 10 9 15 21 14 24 12 10 -5z m-119 -115 c-17
-17 -31 -29 -31 -25 0 10 53 65 58 60 3 -2 -10 -18 -27 -35z m-110 -134 c-33
-47 -51 -64 -51 -47 0 5 6 14 13 18 7 4 23 25 37 45 13 20 26 35 28 33 2 -2
-10 -24 -27 -49z m1528 -96 c0 -9 -6 -4 -14 10 -8 14 -14 32 -14 40 0 9 6 4
14 -10 8 -14 14 -32 14 -40z m356 -220 c3 -5 1 -10 -4 -10 -6 0 -11 5 -11 10
0 6 2 10 4 10 3 0 8 -4 11 -10z m-88 -492 c-3 -8 -6 -5 -6 6 -1 11 2 17 5 13
3 -3 4 -12 1 -19z m1760 -44 c-3 -3 -12 -4 -19 -1 -8 3 -5 6 6 6 11 1 17 -2
13 -5z m73 -4 c8 -5 11 -10 5 -10 -5 0 -17 5 -25 10 -8 5 -10 10 -5 10 6 0 17
-5 25 -10z m50 0 c0 -5 -5 -10 -11 -10 -5 0 -7 5 -4 10 3 6 8 10 11 10 2 0 4
-4 4 -10z m-337 -7 c-7 -2 -19 -2 -25 0 -7 3 -2 5 12 5 14 0 19 -2 13 -5z
m-106 -19 c-3 -3 -12 -4 -19 -1 -8 3 -5 6 6 6 11 1 17 -2 13 -5z m-130 -20
c-3 -3 -12 -4 -19 -1 -8 3 -5 6 6 6 11 1 17 -2 13 -5z m-82 -14 c3 -5 -1 -10
-9 -10 -9 0 -16 5 -16 10 0 6 4 10 9 10 6 0 13 -4 16 -10z m42 4 c-3 -3 -12
-4 -19 -1 -8 3 -5 6 6 6 11 1 17 -2 13 -5z m-5440 -80 c-3 -3 -12 -4 -19 -1
-8 3 -5 6 6 6 11 1 17 -2 13 -5z m1110 -20 c-3 -3 -12 -4 -19 -1 -8 3 -5 6 6
6 11 1 17 -2 13 -5z m4573 -28 c0 -2 -9 -6 -20 -9 -11 -3 -20 -1 -20 4 0 5 9
9 20 9 11 0 20 -2 20 -4z m337 -2 c-3 -3 -12 -4 -19 -1 -8 3 -5 6 6 6 11 1 17
-2 13 -5z m-394 -11 c-7 -2 -21 -2 -30 0 -10 3 -4 5 12 5 17 0 24 -2 18 -5z
m-83 -13 c-14 -4 -34 -8 -45 -8 -16 0 -15 2 5 8 14 4 34 8 45 8 16 0 15 -2 -5
-8z m-73 -16 c-3 -3 -12 -4 -19 -1 -8 3 -5 6 6 6 11 1 17 -2 13 -5z m-40 -10
c-3 -3 -12 -4 -19 -1 -8 3 -5 6 6 6 11 1 17 -2 13 -5z m-347 -101 c-8 -3 -24
-10 -35 -15 -20 -9 -20 -9 -1 6 11 9 27 16 35 15 14 0 14 -1 1 -6z m1217 -115
c-3 -7 -5 -2 -5 12 0 14 2 19 5 13 2 -7 2 -19 0 -25z m-6757 8 c0 -3 -4 -8
-10 -11 -5 -3 -10 -1 -10 4 0 6 5 11 10 11 6 0 10 -2 10 -4z m4777 -48 c-3 -7
-5 -2 -5 12 0 14 2 19 5 13 2 -7 2 -19 0 -25z m2120 -600 c-3 -8 -6 -5 -6 6
-1 11 2 17 5 13 3 -3 4 -12 1 -19z m-607 -858 c12 -8 10 -10 -10 -10 -14 0
-32 5 -40 10 -12 8 -10 10 10 10 14 0 32 -5 40 -10z m240 -50 c0 -5 -7 -10
-16 -10 -8 0 -12 5 -9 10 3 6 10 10 16 10 5 0 9 -4 9 -10z m-6765 -60 c-3 -5
-12 -10 -18 -10 -7 0 -6 4 3 10 19 12 23 12 15 0z m6915 -10 c0 -5 -7 -10 -15
-10 -8 0 -15 5 -15 10 0 6 7 10 15 10 8 0 15 -4 15 -10z m-6993 -26 c-3 -3
-12 -4 -19 -1 -8 3 -5 6 6 6 11 1 17 -2 13 -5z m7343 -94 c0 -13 -11 -13 -30
0 -12 8 -11 10 8 10 12 0 22 -4 22 -10z m-7795 -80 c3 -5 1 -10 -4 -10 -6 0
-11 5 -11 10 0 6 2 10 4 10 3 0 8 -4 11 -10z m-75 -40 c-24 -15 -36 -11 -14 4
10 8 21 12 24 10 2 -3 -2 -9 -10 -14z m-140 -75 c-14 -8 -32 -14 -40 -14 -9 0
-4 6 10 14 14 8 32 14 40 14 9 0 4 -6 -10 -14z m8837 9 c-3 -3 -12 -4 -19 -1
-8 3 -5 6 6 6 11 1 17 -2 13 -5z m213 -105 c28 -30 34 -39 27 -39 -2 0 -18 16
-37 35 -19 19 -31 35 -27 35 4 0 20 -14 37 -31z m-9235 -9 c-3 -5 -16 -15 -28
-21 -19 -9 -19 -8 3 10 28 23 34 26 25 11z m-180 -135 c-27 -25 -54 -45 -60
-44 -5 0 1 8 15 18 14 11 39 31 55 45 17 14 32 26 35 26 3 -1 -17 -21 -45 -45z
m9525 -30 c0 -5 -5 -3 -10 5 -5 8 -10 20 -10 25 0 6 5 3 10 -5 5 -8 10 -19 10
-25z m-9601 -37 c-2 -2 -23 -21 -47 -43 -23 -21 -42 -36 -42 -33 0 10 74 78
84 78 5 0 7 -1 5 -2z m9608 -60 c-2 -13 -4 -3 -4 22 0 25 2 35 4 23 2 -13 2
-33 0 -45z m-9717 -43 c-7 -9 -15 -13 -17 -11 -7 7 7 26 19 26 6 0 6 -6 -2
-15z m-135 -174 c-17 -35 -22 -38 -22 -16 0 8 4 15 8 15 4 0 11 9 14 21 4 11
9 18 12 16 2 -3 -3 -19 -12 -36z m9915 -42 c0 -6 -4 -7 -10 -4 -5 3 -10 11
-10 16 0 6 5 7 10 4 6 -3 10 -11 10 -16z m-10030 -229 c0 -5 -5 -10 -11 -10
-5 0 -7 5 -4 10 3 6 8 10 11 10 2 0 4 -4 4 -10z m7 -272 c-3 -8 -6 -5 -6 6 -1
11 2 17 5 13 3 -3 4 -12 1 -19z m151 -333 c-3 -3 -9 2 -12 12 -6 14 -5 15 5 6
7 -7 10 -15 7 -18z m9935 10 c-3 -9 -8 -14 -10 -11 -3 3 -2 9 2 15 9 16 15 13
8 -4z m-73 -115 c0 -5 -5 -10 -11 -10 -5 0 -7 5 -4 10 3 6 8 10 11 10 2 0 4
-4 4 -10z m-9705 -70 c3 -5 1 -10 -4 -10 -6 0 -11 5 -11 10 0 6 2 10 4 10 3 0
8 -4 11 -10z m9645 6 c0 -2 -8 -10 -17 -17 -16 -13 -17 -12 -4 4 13 16 21 21
21 13z m-9558 -81 c16 -14 25 -25 20 -25 -5 0 -21 11 -36 25 -15 14 -24 25
-20 25 3 0 19 -11 36 -25z m9486 5 c-7 -11 -17 -20 -22 -20 -5 0 -1 9 9 20 10
11 20 20 22 20 2 0 -2 -9 -9 -20z m-9419 -79 c-2 -6 -10 2 -17 17 -11 25 -11
25 4 10 9 -9 15 -21 13 -27z m9331 4 c-7 -8 -17 -15 -23 -15 -6 0 -2 7 9 15
25 19 30 19 14 0z m-9328 -102 c2 -34 1 -60 -4 -57 -4 3 -8 35 -7 72 1 79 6
72 11 -15z m9063 -93 c-3 -5 -12 -10 -18 -10 -7 0 -6 4 3 10 19 12 23 12 15 0z
m-8991 -106 c3 -8 2 -12 -4 -9 -6 3 -10 10 -10 16 0 14 7 11 14 -7z m86 -86
c32 -30 37 -37 15 -23 -35 21 -82 65 -69 65 5 -1 29 -20 54 -42z m490 2 c0 -5
-5 -10 -11 -10 -5 0 -7 5 -4 10 3 6 8 10 11 10 2 0 4 -4 4 -10z m51 -18 c-7
-2 -18 1 -23 6 -8 8 -4 9 13 5 13 -4 18 -8 10 -11z m-456 -40 c-3 -3 -11 0
-18 7 -9 10 -8 11 6 5 10 -3 15 -9 12 -12z m533 3 c3 -3 -4 -5 -16 -5 -11 0
-23 4 -27 9 -6 10 33 6 43 -4z m262 -111 c0 -2 -7 -4 -15 -4 -8 0 -15 4 -15
10 0 5 7 7 15 4 8 -4 15 -8 15 -10z m147 -48 c13 -12 -73 8 -87 20 -12 12 -7
12 34 0 26 -8 50 -17 53 -20z m7052 10 c-2 -2 -17 -6 -34 -10 -22 -5 -26 -4
-15 4 14 9 59 15 49 6z m-7002 -32 c-3 -3 -12 -4 -19 -1 -8 3 -5 6 6 6 11 1
17 -2 13 -5z m293 -94 c0 -5 -4 -10 -9 -10 -6 0 -13 5 -16 10 -3 6 1 10 9 10
9 0 16 -4 16 -10z m100 -24 c0 -2 -7 -9 -15 -16 -12 -10 -15 -10 -15 4 0 9 7
16 15 16 8 0 15 -2 15 -4z m-193 -368 c-3 -8 -6 -5 -6 6 -1 11 2 17 5 13 3 -3
4 -12 1 -19z m6590 -410 c2 -30 1 -31 -7 -10 -6 13 -8 28 -4 33 8 14 10 11 11
-23z m-6792 -280 c-5 -29 -10 -47 -13 -40 -5 17 8 106 15 99 3 -3 2 -30 -2
-59z m4700 -528 c3 -5 1 -10 -4 -10 -6 0 -11 5 -11 10 0 6 2 10 4 10 3 0 8 -4
11 -10z m-4621 -16 c3 -8 2 -12 -4 -9 -6 3 -10 10 -10 16 0 14 7 11 14 -7z
m4666 -4 c8 -5 11 -10 5 -10 -5 0 -17 5 -25 10 -8 5 -10 10 -5 10 6 0 17 -5
25 -10z m-3640 -190 c-8 -5 -22 -9 -30 -9 -10 0 -8 3 5 9 27 12 43 12 25 0z
m-143 -26 c-3 -3 -12 -4 -19 -1 -8 3 -5 6 6 6 11 1 17 -2 13 -5z m4377 -19
c44 -19 47 -27 5 -15 -33 10 -51 6 -91 -22 -14 -10 -30 -18 -34 -18 -5 0 8 11
29 25 20 14 37 30 37 35 0 14 12 12 54 -5z m-476 -31 l27 -27 -32 22 c-18 12
-33 24 -33 27 0 10 13 2 38 -22z m189 -70 c-3 -3 -12 -4 -19 -1 -8 3 -5 6 6 6
11 1 17 -2 13 -5z m701 -1 c-10 -2 -28 -2 -40 0 -13 2 -5 4 17 4 22 1 32 -1
23 -4z m62 -13 c13 -9 13 -10 0 -10 -8 0 -22 5 -30 10 -13 9 -13 10 0 10 8 0
22 -5 30 -10z m517 4 c-3 -3 -12 -4 -19 -1 -8 3 -5 6 6 6 11 1 17 -2 13 -5z
m-80 -10 c-3 -3 -12 -4 -19 -1 -8 3 -5 6 6 6 11 1 17 -2 13 -5z m-4020 -436
c-3 -8 -6 -5 -6 6 -1 11 2 17 5 13 3 -3 4 -12 1 -19z m53 -113 c0 -8 -2 -15
-4 -15 -2 0 -6 7 -10 15 -3 8 -1 15 4 15 6 0 10 -7 10 -15z m2046 -57 c-9 -14
-14 -27 -10 -30 3 -3 1 -9 -5 -12 -13 -8 -4 44 11 61 18 22 21 7 4 -19z
m-1986 -78 c0 -5 -2 -10 -4 -10 -3 0 -8 5 -11 10 -3 6 -1 10 4 10 6 0 11 -4
11 -10z m79 -175 c0 -5 -6 1 -14 15 -8 14 -14 30 -14 35 0 6 6 -1 14 -15 8
-14 14 -29 14 -35z m1701 -125 c0 -5 -5 -10 -11 -10 -5 0 -7 5 -4 10 3 6 8 10
11 10 2 0 4 -4 4 -10z m-70 -100 c-6 -11 -13 -20 -16 -20 -2 0 0 9 6 20 6 11
13 20 16 20 2 0 0 -9 -6 -20z m-1500 -5 c0 -8 -2 -15 -4 -15 -2 0 -6 7 -10 15
-3 8 -1 15 4 15 6 0 10 -7 10 -15z m1452 -57 c-7 -7 -12 -8 -12 -2 0 14 12 26
19 19 2 -3 -1 -11 -7 -17z m-1314 -110 c14 -16 21 -28 16 -28 -11 0 -74 82
-74 96 0 5 7 -3 17 -16 9 -14 27 -37 41 -52z m1252 31 c-7 -11 -14 -18 -17
-15 -3 3 0 12 7 21 18 21 23 19 10 -6z m-1015 -239 c3 -5 2 -10 -4 -10 -5 0
-13 5 -16 10 -3 6 -2 10 4 10 5 0 13 -4 16 -10z m750 -10 c-10 -11 -21 -17
-24 -14 -3 3 3 12 13 20 28 20 32 17 11 -6z m-480 -100 c3 -5 1 -10 -4 -10 -6
0 -11 5 -11 10 0 6 2 10 4 10 3 0 8 -4 11 -10z m198 -7 c-7 -2 -21 -2 -30 0
-10 3 -4 5 12 5 17 0 24 -2 18 -5z"/>
<path d="M7903 12200 c-86 -10 -230 -80 -319 -157 -141 -122 -304 -340 -443
-597 -45 -82 -81 -151 -81 -152 0 -1 -24 -53 -54 -116 -112 -237 -306 -748
-306 -806 0 -10 -3 -22 -7 -26 -11 -10 -33 -87 -24 -81 4 2 13 22 21 44 7 23
17 41 22 41 58 0 706 -404 987 -615 73 -55 141 -104 150 -110 9 -5 18 -12 21
-16 3 -3 43 -35 88 -72 69 -55 91 -67 120 -67 157 -1 833 -49 982 -70 93 -14
92 -14 86 18 -3 15 -8 54 -11 87 -19 184 -124 770 -154 860 l-10 30 2 -34 c2
-32 -1 -35 -88 -83 -125 -70 -378 -231 -515 -328 -372 -262 -447 -310 -489
-310 -11 0 -33 11 -48 25 l-28 26 25 17 c13 9 92 65 175 124 282 202 838 568
861 568 3 0 20 11 38 25 18 14 38 25 45 25 8 0 10 11 5 38 -9 52 -79 328 -97
382 -8 25 -25 80 -37 123 l-23 77 -78 0 c-104 0 -172 26 -245 92 -166 152
-163 396 7 557 l61 59 -71 94 c-111 150 -191 223 -308 282 -48 24 -163 57
-188 54 -5 0 -38 -4 -72 -8z m14 -26 c-3 -3 -12 -4 -19 -1 -8 3 -5 6 6 6 11 1
17 -2 13 -5z m-107 -24 c0 -5 -5 -10 -11 -10 -5 0 -7 5 -4 10 3 6 8 10 11 10
2 0 4 -4 4 -10z m355 -20 c3 -6 -1 -7 -9 -4 -18 7 -21 14 -7 14 6 0 13 -4 16
-10z m-410 -10 c-3 -5 -11 -10 -16 -10 -6 0 -7 5 -4 10 3 6 11 10 16 10 6 0 7
-4 4 -10z m-45 -30 c-8 -5 -17 -7 -19 -4 -3 3 1 9 9 14 8 5 17 7 19 4 3 -3 -1
-9 -9 -14z m-110 -74 c0 -2 -8 -10 -17 -17 -16 -13 -17 -12 -4 4 13 16 21 21
21 13z m-81 -76 c-13 -16 -25 -28 -27 -25 -5 5 37 55 45 55 2 0 -6 -13 -18
-30z m911 -50 c17 -22 28 -40 23 -40 -5 0 -21 18 -36 40 -14 22 -24 40 -22 40
2 0 18 -18 35 -40z m-1011 -75 c-12 -19 -25 -35 -31 -35 -11 0 -3 14 26 47 27
32 29 29 5 -12z m1079 -20 c-3 -3 -9 2 -12 12 -6 14 -5 15 5 6 7 -7 10 -15 7
-18z m-18 -39 c0 -2 -8 -10 -17 -17 -16 -13 -17 -12 -4 4 13 16 21 21 21 13z
m-1139 -39 c-10 -9 -11 -8 -5 6 3 10 9 15 12 12 3 -3 0 -11 -7 -18z m-40 -60
c-10 -9 -11 -8 -5 6 3 10 9 15 12 12 3 -3 0 -11 -7 -18z m1026 -219 c-3 -8 -6
-5 -6 6 -1 11 2 17 5 13 3 -3 4 -12 1 -19z m44 -193 c8 -16 6 -15 -10 4 -12
13 -21 28 -21 35 0 12 14 -5 31 -39z m79 -95 c0 -5 -2 -10 -4 -10 -3 0 -8 5
-11 10 -3 6 -1 10 4 10 6 0 11 -4 11 -10z m50 -42 c0 -6 -6 -5 -15 2 -8 7 -15
14 -15 16 0 2 7 1 15 -2 8 -4 15 -11 15 -16z m-1499 -11 c-10 -9 -11 -8 -5 6
3 10 9 15 12 12 3 -3 0 -11 -7 -18z m-226 -737 c3 -5 1 -10 -4 -10 -6 0 -11 5
-11 10 0 6 2 10 4 10 3 0 8 -4 11 -10z m2245 -265 c0 -8 -2 -15 -4 -15 -2 0
-6 7 -10 15 -3 8 -1 15 4 15 6 0 10 -7 10 -15z m-870 -130 c-7 -8 -18 -15 -24
-15 -6 0 -2 7 8 15 25 19 32 19 16 0z m-560 -117 c0 -13 -5 -9 -31 19 l-24 26
27 -19 c15 -10 28 -22 28 -26z m45 -28 c3 -6 -1 -7 -9 -4 -18 7 -21 14 -7 14
6 0 13 -4 16 -10z m543 -37 c-10 -2 -18 -9 -18 -13 0 -5 -15 -17 -32 -26 l-33
-16 35 31 c19 16 42 30 50 29 10 0 10 -2 -2 -5z m-389 -81 c-5 -2 -23 11 -41
28 l-33 32 41 -29 c23 -15 38 -29 33 -31z m136 -82 c-3 -5 -12 -10 -18 -10 -7
0 -6 4 3 10 19 12 23 12 15 0z m53 -60 c7 -11 11 -20 9 -20 -2 0 -12 9 -22 20
-10 11 -14 20 -9 20 5 0 15 -9 22 -20z m485 -87 c-7 -2 -19 -2 -25 0 -7 3 -2
5 12 5 14 0 19 -2 13 -5z m480 -30 c-13 -2 -33 -2 -45 0 -13 2 -3 4 22 4 25 0
35 -2 23 -4z m54 -9 c-3 -3 -12 -4 -19 -1 -8 3 -5 6 6 6 11 1 17 -2 13 -5z"/>
<path d="M4920 10750 c-86 -8 -184 -44 -250 -89 -250 -172 -235 -660 42 -1326
53 -128 75 -168 86 -161 23 14 569 117 772 145 309 43 370 51 515 66 83 9 153
19 156 23 4 4 17 52 29 107 42 187 122 509 156 628 19 65 34 123 34 128 0 9
-181 102 -328 169 l-72 33 -40 -31 c-53 -43 -83 -54 -160 -55 -72 -1 -132 21
-187 67 -41 35 -83 120 -83 168 0 35 -4 41 -32 52 -61 25 -263 65 -383 75
-129 12 -155 12 -255 1z m197 -26 c-3 -3 -12 -4 -19 -1 -8 3 -5 6 6 6 11 1 17
-2 13 -5z m162 -9 c7 -8 -71 -3 -104 6 -20 5 -9 6 35 3 35 -3 66 -7 69 -9z
m-494 -25 c-3 -5 -11 -10 -16 -10 -6 0 -7 5 -4 10 3 6 11 10 16 10 6 0 7 -4 4
-10z m615 1 c0 -5 -9 -7 -20 -4 -11 3 -20 7 -20 9 0 2 9 4 20 4 11 0 20 -4 20
-9z m93 -28 c-7 -2 -19 -2 -25 0 -7 3 -2 5 12 5 14 0 19 -2 13 -5z m44 -9 c-3
-3 -12 -4 -19 -1 -8 3 -5 6 6 6 11 1 17 -2 13 -5z m-954 -138 c-10 -13 -19
-23 -21 -21 -5 5 22 45 31 45 4 0 0 -11 -10 -24z m1467 -91 c-7 -8 -18 -15
-24 -15 -6 0 -2 7 8 15 25 19 32 19 16 0z m85 -23 c-2 -2 -14 2 -27 9 -12 7
-27 12 -31 11 -5 -1 -6 2 -3 7 4 6 18 3 36 -7 16 -9 27 -18 25 -20z m-414 -9
c13 -15 12 -15 -8 -4 -24 12 -29 21 -14 21 5 0 15 -7 22 -17z m464 -11 c-3 -3
-11 0 -18 7 -9 10 -8 11 6 5 10 -3 15 -9 12 -12z m-355 -22 c8 -5 11 -10 5
-10 -5 0 -17 5 -25 10 -8 5 -10 10 -5 10 6 0 17 -5 25 -10z m120 6 c0 -2 -7
-6 -15 -10 -8 -3 -15 -1 -15 4 0 6 7 10 15 10 8 0 15 -2 15 -4z m380 -46 c0
-5 -2 -10 -4 -10 -3 0 -8 5 -11 10 -3 6 -1 10 4 10 6 0 11 -4 11 -10z m60 -34
c0 -2 -9 -2 -20 1 -11 3 -20 9 -20 15 0 5 9 4 20 -2 11 -6 20 -12 20 -14z m43
-36 c-3 -11 -9 -17 -15 -14 -5 3 -4 12 3 20 16 19 18 18 12 -6z m-1906 -137
c-3 -10 -5 -4 -5 12 0 17 2 24 5 18 2 -7 2 -21 0 -30z m170 -665 c-3 -8 -6 -5
-6 6 -1 11 2 17 5 13 3 -3 4 -12 1 -19z m1340 -44 c-3 -3 -12 -4 -19 -1 -8 3
-5 6 6 6 11 1 17 -2 13 -5z"/>
<path d="M6640 10198 c0 -3 -16 -62 -36 -130 -36 -128 -157 -638 -152 -644 2
-1 48 1 103 6 222 21 971 53 1097 48 43 -2 78 -2 78 -2 0 7 -279 206 -429 307
-85 57 -455 287 -551 342 -47 27 -90 56 -97 65 -7 8 -13 12 -13 8z m30 -63 c0
-9 -6 -12 -15 -9 -8 4 -12 10 -9 15 8 14 24 10 24 -6z m300 -176 c0 -6 -4 -7
-10 -4 -5 3 -10 11 -10 16 0 6 5 7 10 4 6 -3 10 -11 10 -16z m-223 -485 c-3
-3 -12 -4 -19 -1 -8 3 -5 6 6 6 11 1 17 -2 13 -5z"/>
<path d="M7240 9273 c-115 -2 -388 -17 -657 -35 l-172 -11 -10 -31 c-6 -17
-20 -89 -31 -161 -12 -71 -24 -133 -25 -136 -6 -9 -54 -418 -81 -684 -28 -283
-49 -901 -41 -1178 l5 -168 94 -92 c92 -92 305 -296 409 -393 111 -104 372
-324 469 -396 34 -26 44 -27 221 -38 101 -6 285 -10 409 -8 l225 3 105 77
c353 262 522 408 779 671 84 86 159 157 167 157 16 0 19 17 4 22 -6 2 -2 13
10 25 11 12 20 27 20 33 0 21 20 9 21 -12 1 -17 4 -13 11 12 12 42 28 62 28
35 0 -15 3 -16 13 -7 9 10 12 160 13 675 0 364 -3 757 -7 872 -10 279 -39 667
-50 681 -5 6 -69 17 -142 23 -72 7 -175 16 -227 21 -52 5 -185 14 -295 20
-110 5 -236 13 -279 16 -58 5 -77 4 -72 -5 4 -6 24 -11 45 -11 20 0 46 -7 57
-15 10 -8 15 -15 11 -15 -5 0 21 -23 57 -52 50 -40 62 -54 51 -60 -8 -5 -18
-16 -23 -24 -7 -13 -10 -13 -23 2 -12 16 -12 17 4 11 10 -4 16 -3 12 2 -3 5 1
11 7 13 8 3 5 9 -9 16 -14 8 -24 9 -28 2 -3 -5 2 -10 12 -10 15 0 15 -2 3 -9
-8 -6 -17 -8 -21 -5 -4 2 -10 0 -14 -5 -3 -5 5 -17 17 -26 69 -48 115 -75 131
-75 9 0 17 -4 17 -10 0 -5 5 -10 10 -10 6 0 16 -5 23 -10 7 -6 44 -34 82 -62
91 -68 258 -235 321 -320 27 -37 63 -87 80 -111 52 -71 151 -277 167 -348 4
-14 18 -38 32 -55 14 -16 25 -33 25 -39 0 -5 -5 -3 -10 5 -7 10 -9 -19 -6 -95
3 -60 5 -116 6 -123 0 -7 5 -10 10 -7 6 4 10 -8 10 -30 0 -26 -3 -34 -12 -29
-10 6 -10 4 -2 -7 9 -10 8 -41 0 -116 -6 -56 -14 -104 -16 -107 -3 -3 -4 54
-2 127 7 217 -22 396 -89 561 -16 39 -29 74 -29 77 0 14 -101 190 -134 234
-57 74 -180 216 -222 256 -111 105 -282 212 -474 297 -174 78 -597 125 -785
89 -237 -46 -520 -178 -716 -333 -192 -152 -368 -382 -419 -546 -14 -47 -22
-49 -13 -5 14 72 110 247 172 314 16 18 37 43 45 54 23 34 101 113 137 140 18
13 42 33 54 44 23 22 28 25 137 101 75 53 165 98 298 151 297 120 412 133 765
88 94 -12 194 -34 244 -54 30 -11 57 -19 59 -16 2 2 -30 26 -71 53 -103 68
-130 89 -122 102 9 14 -18 13 -34 -2 -8 -7 -11 -8 -8 -2 4 7 -16 13 -61 18
-62 5 -422 5 -672 -1z m137 -29 c-3 -3 -12 -4 -19 -1 -8 3 -5 6 6 6 11 1 17
-2 13 -5z m126 -1 c-7 -2 -21 -2 -30 0 -10 3 -4 5 12 5 17 0 24 -2 18 -5z
m267 0 c0 -5 -37 -7 -82 -5 -150 5 -165 8 -40 10 67 1 122 -1 122 -5z m780
-23 c8 -5 11 -10 5 -10 -5 0 -17 5 -25 10 -8 5 -10 10 -5 10 6 0 17 -5 25 -10z
m67 -6 c-3 -3 -12 -4 -19 -1 -8 3 -5 6 6 6 11 1 17 -2 13 -5z m386 -31 c-7 -2
-19 -2 -25 0 -7 3 -2 5 12 5 14 0 19 -2 13 -5z m-603 -93 c0 -5 -5 -10 -11
-10 -5 0 -7 5 -4 10 3 6 8 10 11 10 2 0 4 -4 4 -10z m-286 -380 c27 -10 56
-56 56 -89 0 -35 -21 -69 -54 -86 -28 -14 -74 -16 -424 -13 l-394 3 -34 37
c-46 50 -47 95 -3 132 l31 26 398 0 c230 0 409 -4 424 -10z m-1163 -240 c52
-12 112 -25 134 -30 197 -42 319 -72 352 -87 61 -28 111 -71 141 -121 31 -54
29 38 24 -1046 -2 -570 -4 -608 -20 -603 -226 68 -299 94 -376 136 -50 27
-138 74 -196 105 -114 61 -169 108 -203 171 -22 40 -22 42 -23 755 -1 455 2
720 9 728 13 17 49 15 158 -8z m1643 -41 l26 -31 0 -233 0 -234 -26 -20 c-18
-14 -41 -21 -71 -21 -38 0 -50 5 -80 35 l-35 35 5 107 c5 119 -2 153 -30 148
-10 -2 -88 -16 -173 -31 -85 -15 -165 -34 -177 -42 -34 -21 -45 -76 -41 -189
l3 -102 40 -36 c35 -31 119 -75 455 -238 66 -32 136 -94 151 -135 5 -13 9 -88
9 -166 0 -154 -13 -212 -65 -301 -20 -36 -82 -95 -99 -95 -3 0 -25 -14 -50
-30 -57 -39 -272 -143 -351 -170 -33 -12 -96 -24 -140 -27 -77 -5 -81 -4 -105
22 l-25 27 -3 281 c-2 155 0 296 3 314 5 26 12 34 40 42 39 10 94 1 131 -24
l25 -16 -3 -205 c-2 -112 0 -204 4 -204 19 0 153 56 255 107 151 74 169 95
178 205 5 58 3 95 -7 123 -13 40 -15 41 -283 175 -292 146 -335 177 -356 253
-7 25 -9 113 -7 231 4 215 10 236 85 308 53 51 80 61 313 107 113 22 225 44
250 49 91 19 126 15 154 -19z m604 -274 c-2 -28 -6 -33 -18 -25 -9 6 -11 13
-5 18 6 4 10 15 11 25 0 9 2 34 4 55 l3 37 4 -37 c2 -21 3 -54 1 -73z m-2919
41 c-9 -8 -10 -7 -5 7 3 10 7 24 7 30 1 7 3 4 6 -7 3 -10 -1 -23 -8 -30z
m2926 -96 c-3 -5 -10 -10 -16 -10 -5 0 -9 5 -9 10 0 6 7 10 16 10 8 0 12 -4 9
-10z m-34 -650 c-5 -25 -9 -35 -10 -24 -1 28 11 92 16 79 1 -6 -1 -30 -6 -55z
m-2904 -215 c23 -96 110 -292 180 -403 39 -62 187 -234 255 -297 40 -36 109
-90 153 -120 152 -101 219 -128 545 -223 61 -18 -6 -14 -79 4 -69 18 -244 83
-346 129 -62 28 -195 117 -237 157 -13 13 -41 39 -63 59 -58 51 -195 205 -195
218 0 6 -4 11 -8 11 -5 0 -14 10 -20 23 -6 12 -28 51 -48 87 -112 198 -157
321 -168 460 -5 64 -5 64 5 15 5 -27 17 -81 26 -120z m2833 -72 c-25 -77 -79
-195 -134 -288 -22 -38 -47 -82 -56 -96 -27 -48 -116 -156 -180 -219 -120
-119 -203 -178 -344 -245 -187 -88 -269 -118 -376 -135 -103 -16 -103 -10 1
14 136 33 222 62 314 107 203 100 369 232 504 399 104 129 169 241 227 387 46
117 69 157 44 76z m-2843 -250 c-3 -10 -5 -2 -5 17 0 19 2 27 5 18 2 -10 2
-26 0 -35z m104 -140 c13 -16 12 -17 -3 -4 -10 7 -18 15 -18 17 0 8 8 3 21
-13z m44 -33 c3 -5 1 -10 -4 -10 -6 0 -11 5 -11 10 0 6 2 10 4 10 3 0 8 -4 11
-10z m2205 -331 c-97 -91 -291 -247 -289 -232 0 10 36 40 114 99 33 25 76 62
96 82 19 20 48 47 65 59 16 12 44 36 62 52 18 17 36 31 40 31 4 -1 -36 -41
-88 -91z m-1113 -235 c-3 -3 -12 -4 -19 -1 -8 3 -5 6 6 6 11 1 17 -2 13 -5z
m321 -15 c-16 -10 -180 -10 -258 0 -38 5 -5 8 108 8 94 0 158 -3 150 -8z m80
4 c-10 -2 -28 -2 -40 0 -13 2 -5 4 17 4 22 1 32 -1 23 -4z m327 -67 c-29 -24
-95 -65 -85 -53 14 16 96 76 105 76 6 1 -3 -10 -20 -23z m-1090 -24 c-3 -3
-11 0 -18 7 -9 10 -8 11 6 5 10 -3 15 -9 12 -12z m628 -109 c-7 -2 -19 -2 -25
0 -7 3 -2 5 12 5 14 0 19 -2 13 -5z"/>
<path d="M6990 8178 c0 -35 0 -290 0 -568 l1 -505 22 -22 c23 -22 317 -180
353 -189 16 -4 23 0 28 18 3 13 6 281 6 596 0 617 -1 630 -52 652 -13 5 -77
21 -143 34 -66 14 -136 30 -155 36 -58 17 -60 16 -60 -52z"/>
<path d="M6075 9194 c-55 -7 -156 -20 -225 -29 -268 -34 -496 -71 -776 -126
l-212 -42 23 -41 c12 -23 39 -72 60 -111 77 -141 100 -183 173 -305 133 -222
440 -678 552 -820 l20 -25 47 50 c27 28 77 86 113 129 36 44 92 111 126 150
34 40 66 81 73 93 6 12 16 66 21 120 42 414 56 520 101 776 16 92 30 173 32
179 3 17 -15 17 -128 2z m-475 -94 c0 -5 -5 -10 -11 -10 -5 0 -7 5 -4 10 3 6
8 10 11 10 2 0 4 -4 4 -10z m-590 -301 c0 -6 -4 -7 -10 -4 -5 3 -10 11 -10 16
0 6 5 7 10 4 6 -3 10 -11 10 -16z m27 -61 c-3 -8 -6 -5 -6 6 -1 11 2 17 5 13
3 -3 4 -12 1 -19z m233 -392 c0 -12 -5 -7 -19 24 -11 24 -11 24 3 6 9 -11 16
-24 16 -30z m128 -201 c-3 -3 -9 2 -12 12 -6 14 -5 15 5 6 7 -7 10 -15 7 -18z
m531 -145 c-56 -64 -73 -78 -40 -32 20 28 81 92 89 92 2 0 -20 -27 -49 -60z
m-388 -57 c13 -16 12 -17 -3 -4 -10 7 -18 15 -18 17 0 8 8 3 21 -13z m48 -67
c-3 -3 -11 5 -18 17 -13 21 -12 21 5 5 10 -10 16 -20 13 -22z"/>
<path d="M9374 9101 c16 -174 36 -544 42 -796 l7 -280 81 -86 c45 -48 117
-129 161 -182 44 -52 89 -100 100 -107 11 -7 17 -9 13 -5 -4 4 19 42 51 84 58
76 103 137 255 346 220 302 547 819 529 836 -11 10 -426 112 -583 143 -199 39
-344 64 -509 89 l-153 23 6 -65z m66 35 c0 -9 -40 -13 -46 -5 -3 5 6 9 20 9
14 0 26 -2 26 -4z m107 -22 c-3 -3 -12 -4 -19 -1 -8 3 -5 6 6 6 11 1 17 -2 13
-5z m420 -70 c-3 -3 -12 -4 -19 -1 -8 3 -5 6 6 6 11 1 17 -2 13 -5z m236 -51
c-7 -2 -19 -2 -25 0 -7 3 -2 5 12 5 14 0 19 -2 13 -5z m381 -117 c-3 -9 -10
-16 -15 -16 -6 0 -5 9 1 21 13 24 24 20 14 -5z m-44 -70 c0 -2 -8 -10 -17 -17
-16 -13 -17 -12 -4 4 13 16 21 21 21 13z m-70 -115 c0 -6 -4 -13 -10 -16 -5
-3 -10 1 -10 9 0 9 5 16 10 16 6 0 10 -4 10 -9z m-370 -551 c0 -5 -4 -10 -10
-10 -5 0 -10 5 -10 10 0 6 5 10 10 10 6 0 10 -4 10 -10z m-530 -204 c0 -3 -4
-8 -10 -11 -5 -3 -10 -1 -10 4 0 6 5 11 10 11 6 0 10 -2 10 -4z m197 -252 c-9
-9 -28 6 -21 18 4 6 10 6 17 -1 6 -6 8 -13 4 -17z"/>
<path d="M8267 9153 c-4 -3 -7 -15 -7 -25 0 -28 25 -21 26 7 2 24 -6 32 -19
18z"/>
<path d="M4630 8940 c-14 -4 -77 -22 -142 -39 -549 -147 -1081 -394 -1368
-636 -193 -163 -310 -368 -310 -544 0 -105 50 -243 132 -364 37 -54 157 -177
221 -228 l28 -21 27 24 c63 59 142 88 237 88 151 0 279 -82 344 -219 23 -51
26 -67 25 -168 l-1 -111 46 -18 c25 -9 69 -27 96 -40 130 -60 529 -201 772
-273 80 -24 93 -25 93 -10 0 13 105 192 232 395 102 163 259 395 381 562 43
59 92 126 108 150 l29 43 -93 122 c-157 207 -323 452 -492 727 -101 165 -149
249 -256 455 -32 61 -64 111 -71 112 -7 1 -24 -2 -38 -7z m-163 -76 c-3 -3
-12 -4 -19 -1 -8 3 -5 6 6 6 11 1 17 -2 13 -5z m-40 -10 c-3 -3 -12 -4 -19 -1
-8 3 -5 6 6 6 11 1 17 -2 13 -5z m-90 -30 c-3 -3 -12 -4 -19 -1 -8 3 -5 6 6 6
11 1 17 -2 13 -5z m542 -299 c-3 -2 -16 10 -29 28 l-23 32 29 -27 c15 -15 26
-30 23 -33z m-1289 5 c0 -5 -7 -10 -16 -10 -8 0 -12 5 -9 10 3 6 10 10 16 10
5 0 9 -4 9 -10z m-300 -175 c0 -2 -10 -10 -22 -16 -21 -11 -22 -11 -9 4 13 16
31 23 31 12z m-50 -35 c0 -5 -5 -10 -11 -10 -5 0 -7 5 -4 10 3 6 8 10 11 10 2
0 4 -4 4 -10z m-150 -125 c-19 -19 -39 -35 -44 -35 -12 1 59 70 71 70 4 0 -8
-16 -27 -35z m-50 -50 c0 -8 -59 -65 -67 -65 -4 0 8 16 27 35 34 35 40 40 40
30z m-109 -144 c-12 -12 -21 -26 -21 -33 0 -6 -3 -9 -6 -5 -4 3 4 23 17 43 12
21 24 33 27 26 2 -6 -6 -20 -17 -31z m2404 -181 c3 -5 1 -10 -4 -10 -6 0 -11
5 -11 10 0 6 2 10 4 10 3 0 8 -4 11 -10z m-2498 -77 c-3 -10 -5 -4 -5 12 0 17
2 24 5 18 2 -7 2 -21 0 -30z m2687 -179 c3 -8 2 -12 -4 -9 -6 3 -10 10 -10 16
0 14 7 11 14 -7z m12 -56 c-9 -12 -16 -17 -16 -10 0 14 23 42 29 37 1 -2 -4
-14 -13 -27z m-35 -51 c-10 -9 -11 -8 -5 6 3 10 9 15 12 12 3 -3 0 -11 -7 -18z
m-2547 -63 c3 -8 2 -12 -4 -9 -6 3 -10 10 -10 16 0 14 7 11 14 -7z m2440 -89
c-4 -8 -11 -15 -16 -15 -6 0 -5 6 2 15 7 8 14 15 16 15 2 0 1 -7 -2 -15z
m-2305 -67 c21 -34 7 -29 -23 8 -20 26 -23 32 -8 23 10 -6 25 -21 31 -31z
m191 -33 c-7 -8 -20 -15 -29 -15 -11 1 -8 5 9 15 32 18 35 18 20 0z m-120 -30
c0 5 7 0 15 -11 15 -19 15 -19 35 5 11 13 20 20 20 15 0 -12 -32 -44 -45 -44
-6 0 -24 15 -41 32 -16 18 -19 24 -6 14 12 -11 22 -15 22 -11z m2128 -15 c-7
-10 -14 -17 -17 -15 -4 4 18 35 25 35 2 0 -1 -9 -8 -20z m-1448 -170 c0 -13
-1 -13 -10 0 -5 8 -10 22 -10 30 0 13 1 13 10 0 5 -8 10 -22 10 -30z m1310
-44 c0 -2 -7 -9 -15 -16 -13 -11 -14 -10 -9 4 5 14 24 23 24 12z m-68 -98 c-7
-7 -12 -8 -12 -2 0 14 12 26 19 19 2 -3 -1 -11 -7 -17z m-1165 -122 c0 -8 -6
-12 -15 -9 -11 5 -11 7 0 14 7 5 13 9 14 9 0 0 1 -6 1 -14z m49 -31 c10 -8 14
-15 8 -15 -5 0 -19 7 -30 15 -10 8 -14 15 -8 15 5 0 19 -7 30 -15z"/>
<path d="M10740 8861 c0 -10 -60 -112 -164 -281 -150 -244 -425 -633 -647
-916 -86 -109 -87 -112 -71 -135 9 -13 55 -73 103 -134 151 -193 373 -512 496
-715 37 -62 81 -133 96 -157 15 -25 42 -72 59 -105 19 -37 35 -57 44 -54 7 3
32 10 56 16 276 72 805 268 1035 384 386 194 667 428 767 639 46 98 60 164 53
256 -8 114 -57 223 -148 329 l-26 30 -66 -33 c-125 -63 -273 -52 -379 28 -125
95 -176 267 -123 418 l13 36 -167 76 c-238 108 -569 230 -815 302 -95 27 -116
30 -116 16z m-181 -384 c-2 -1 -13 -9 -24 -17 -19 -14 -19 -14 -6 3 7 9 18 17
24 17 6 0 8 -1 6 -3z m-153 -219 c-9 -12 -16 -19 -16 -15 0 11 24 47 28 42 2
-2 -3 -14 -12 -27z m-66 -97 c0 -5 -7 -12 -16 -15 -14 -5 -15 -4 -4 9 14 17
20 19 20 6z m-37 -51 c-5 -19 -23 -29 -23 -12 0 7 20 32 26 32 1 0 0 -9 -3
-20z m2097 -131 c0 -6 -6 -9 -14 -6 -8 3 -20 -1 -26 -9 -7 -8 -18 -14 -24 -14
-15 1 36 39 52 40 6 0 12 -5 12 -11z m-2202 -13 c-7 -8 -15 -12 -17 -11 -5 6
10 25 20 25 5 0 4 -6 -3 -14z m1811 -12 c13 -12 -8 -10 -29 2 l-25 15 25 -7
c14 -3 27 -8 29 -10z m58 -20 c-3 -3 -12 -4 -19 -1 -8 3 -5 6 6 6 11 1 17 -2
13 -5z m403 -56 c0 -5 -4 -8 -10 -8 -5 0 -10 10 -10 23 0 18 2 19 10 7 5 -8
10 -18 10 -22z m-2576 -313 c-4 -8 -1 -21 5 -29 6 -7 9 -15 6 -18 -3 -3 4 -13
15 -23 11 -10 20 -22 20 -27 0 -5 -11 4 -25 20 -14 17 -25 34 -25 40 0 6 -6
12 -12 15 -10 3 -10 7 1 20 17 21 22 22 15 2z m2599 -153 c-3 -12 -9 -22 -14
-22 -12 0 -11 7 3 30 15 24 19 21 11 -8z m-2384 -165 c-2 -3 -15 10 -28 27
l-24 31 28 -27 c16 -15 27 -29 24 -31z m2181 -91 c0 -3 -4 -8 -10 -11 -5 -3
-10 -1 -10 4 0 6 5 11 10 11 6 0 10 -2 10 -4z m-59 -57 c-41 -35 -48 -37 -24
-5 10 13 21 22 26 19 4 -2 10 3 13 12 4 9 9 13 13 10 3 -4 -10 -19 -28 -36z
m-94 -75 c-3 -3 -12 -4 -19 -1 -8 3 -5 6 6 6 11 1 17 -2 13 -5z m-348 -207
c-2 -1 -13 -9 -24 -17 -19 -14 -19 -14 -6 3 7 9 18 17 24 17 6 0 8 -1 6 -3z
m-124 -67 c-3 -5 -14 -10 -23 -9 -14 0 -13 2 3 9 27 11 27 11 20 0z"/>
<path d="M6036 7922 c-3 -10 -45 -67 -92 -127 -47 -61 -99 -131 -116 -157 -17
-27 -35 -48 -40 -48 -20 0 -3 32 67 120 41 52 75 98 75 103 0 4 -22 -15 -50
-43 -27 -27 -53 -50 -57 -49 -18 3 -33 -2 -33 -10 0 -5 9 -7 20 -4 11 3 20 0
20 -6 0 -6 -7 -11 -16 -11 -8 0 -13 -4 -9 -9 3 -5 -2 -16 -10 -24 -8 -9 -15
-20 -15 -26 0 -6 -7 -8 -16 -4 -24 9 -9 -14 86 -137 45 -58 103 -133 128 -168
l47 -62 7 326 c5 222 11 331 19 340 7 9 8 14 1 14 -6 0 -13 -8 -16 -18z m-20
-97 c-3 -8 -10 -15 -15 -15 -7 0 -6 10 1 26 12 26 25 16 14 -11z m-9 -162 c-2
-27 -3 -5 -3 47 0 52 1 74 3 48 2 -27 2 -69 0 -95z m-10 -125 c-2 -13 -4 -3
-4 22 0 25 2 35 4 23 2 -13 2 -33 0 -45z m-23 -154 c5 -14 4 -15 -9 -4 -17 14
-19 20 -6 20 5 0 12 -7 15 -16z m36 -42 c0 -7 -4 -10 -10 -7 -5 3 -10 16 -10
28 0 18 2 19 10 7 5 -8 10 -21 10 -28z"/>
<path d="M5966 7901 c-3 -5 1 -11 9 -15 15 -6 29 7 18 18 -9 9 -21 8 -27 -3z"/>
<path d="M9413 7532 c-2 -130 -5 -257 -8 -282 l-5 -45 17 25 c10 14 38 46 63
71 147 150 172 180 163 192 -99 125 -217 273 -222 274 -3 2 -7 -104 -8 -235z
m57 137 c0 -5 -4 -9 -10 -9 -5 0 -10 7 -10 16 0 8 5 12 10 9 6 -3 10 -10 10
-16z m-23 -126 c-2 -16 -4 -3 -4 27 0 30 2 43 4 28 2 -16 2 -40 0 -55z m77 61
c5 -14 4 -15 -9 -4 -17 14 -19 20 -6 20 5 0 12 -7 15 -16z m85 -113 c-3 -7
-13 3 -23 21 l-19 33 23 -21 c12 -12 21 -27 19 -33z"/>
<path d="M5737 7705 c-4 -8 -13 -15 -22 -15 -14 0 -14 -3 1 -25 18 -28 41 -35
25 -8 -6 11 -6 24 1 36 5 10 8 21 5 23 -2 3 -7 -2 -10 -11z"/>
<path d="M9624 7418 l-29 -31 32 22 c35 23 50 41 35 41 -4 0 -21 -14 -38 -32z"/>
<path d="M5519 7240 c-178 -252 -440 -651 -513 -781 -32 -57 -63 -107 -69
-111 -6 -4 -9 -9 -7 -12 5 -4 369 -95 525 -131 130 -30 589 -115 622 -115 7 0
10 6 8 13 -8 23 -45 534 -46 633 0 55 -3 131 -7 170 -7 70 -9 74 -67 139 -33
37 -103 122 -155 189 -52 67 -109 139 -126 159 l-30 37 -135 -190z m147 122
c-22 -5 -30 3 -21 18 5 8 11 7 22 -2 15 -12 14 -13 -1 -16z m208 -248 c5 -14
4 -15 -9 -4 -17 14 -19 20 -6 20 5 0 12 -7 15 -16z m116 -139 c0 -12 -20 6
-31 28 l-11 22 21 -22 c11 -12 21 -25 21 -28z m-727 -170 c-3 -9 -8 -14 -10
-11 -3 3 -2 9 2 15 9 16 15 13 8 -4z m774 -417 c-3 -8 -6 -5 -6 6 -1 11 2 17
5 13 3 -3 4 -12 1 -19z m-1037 -44 c0 -2 -7 -4 -15 -4 -8 0 -15 4 -15 10 0 5
7 7 15 4 8 -4 15 -8 15 -10z m1037 -16 c-3 -7 -5 -2 -5 12 0 14 2 19 5 13 2
-7 2 -19 0 -25z m13 -108 c0 -11 -2 -20 -4 -20 -2 0 -6 9 -9 20 -3 11 -1 20 4
20 5 0 9 -9 9 -20z"/>
<path d="M9690 7399 c0 -5 5 -7 10 -4 6 3 10 8 10 11 0 2 -4 4 -10 4 -5 0 -10
-5 -10 -11z"/>
<path d="M9685 7338 c-22 -28 -62 -76 -89 -107 -27 -31 -72 -83 -100 -115 -28
-33 -63 -72 -77 -87 -28 -30 -23 1 -65 -404 -16 -158 -59 -478 -70 -520 -3
-14 -2 -25 3 -25 17 0 515 90 668 121 142 29 486 108 493 114 13 12 -322 542
-477 755 -22 30 -52 73 -68 95 -33 47 -172 225 -176 225 -1 -1 -20 -24 -42
-52z m75 -18 c6 -11 9 -20 7 -20 -2 0 -12 9 -22 20 -10 11 -13 20 -7 20 6 0
16 -9 22 -20z m180 -245 c-1 -5 -7 -1 -15 10 -8 11 -19 25 -25 32 -5 7 -10 16
-10 20 1 12 50 -50 50 -62z m48 -65 c7 -11 11 -20 9 -20 -2 0 -12 9 -22 20
-10 11 -14 20 -9 20 5 0 15 -9 22 -20z m63 -97 c13 -16 12 -17 -3 -4 -10 7
-18 15 -18 17 0 8 8 3 21 -13z m-664 -265 c-3 -7 -5 -2 -5 12 0 14 2 19 5 13
2 -7 2 -19 0 -25z m1023 -311 c0 -6 -9 5 -20 26 -26 48 -26 62 0 19 11 -18 20
-38 20 -45z m-1073 -79 c-3 -8 -6 -5 -6 6 -1 11 2 17 5 13 3 -3 4 -12 1 -19z"/>
<path d="M9544 7248 l-19 -23 23 19 c21 18 27 26 19 26 -2 0 -12 -10 -23 -22z"/>
<path d="M9404 7088 l-19 -23 23 19 c21 18 27 26 19 26 -2 0 -12 -10 -23 -22z"/>
<path d="M9192 6895 c0 -25 5 -45 10 -45 4 0 8 20 8 45 0 25 -5 45 -10 45 -6
0 -9 -20 -8 -45z"/>
<path d="M9187 6813 c-2 -4 -8 -22 -11 -39 -5 -23 -55 -77 -199 -215 -241
-230 -341 -320 -427 -384 -37 -27 -105 -82 -151 -121 -46 -39 -91 -74 -99 -77
-36 -16 578 43 741 71 l44 7 12 75 c22 131 52 342 63 445 6 55 18 131 26 169
13 62 14 91 1 69z m-50 -245 c-3 -7 -5 -2 -5 12 0 14 2 19 5 13 2 -7 2 -19 0
-25z"/>
<path d="M6235 6573 c3 -32 15 -159 26 -282 11 -123 22 -227 24 -231 4 -7 37
-13 135 -25 8 -1 83 -10 165 -19 83 -9 186 -21 229 -26 111 -14 116 -13 86 11
-146 120 -263 228 -445 412 -118 119 -218 217 -221 217 -3 0 -2 -26 1 -57z
m42 -150 c-3 -10 -5 -4 -5 12 0 17 2 24 5 18 2 -7 2 -21 0 -30z m114 20 c13
-16 12 -17 -3 -4 -10 7 -18 15 -18 17 0 8 8 3 21 -13z m364 -351 c-3 -3 -11 0
-18 7 -9 10 -8 11 6 5 10 -3 15 -9 12 -12z m63 -51 c12 -11 22 -23 22 -27 0
-4 -10 2 -22 13 -13 11 -30 23 -38 26 -13 5 -13 5 0 6 8 0 25 -8 38 -18z
m-101 -17 c-3 -3 -12 -4 -19 -1 -8 3 -5 6 6 6 11 1 17 -2 13 -5z m50 0 c-3 -3
-12 -4 -19 -1 -8 3 -5 6 6 6 11 1 17 -2 13 -5z"/>
<path d="M4738 6183 c7 -3 16 -2 19 1 4 3 -2 6 -13 5 -11 0 -14 -3 -6 -6z"/>
<path d="M4780 6170 c8 -5 22 -10 30 -10 13 0 13 1 0 10 -8 5 -22 10 -30 10
-13 0 -13 -1 0 -10z"/>
<path d="M4796 6087 c-61 -93 -147 -281 -224 -487 -97 -262 -126 -402 -126
-625 -1 -151 0 -164 25 -223 53 -124 114 -181 244 -227 69 -24 100 -28 220
-32 272 -9 532 48 925 204 91 36 215 89 277 118 l112 53 6 -39 c4 -21 11 -42
16 -45 6 -3 8 4 5 18 -5 19 -50 247 -85 433 -14 72 -38 231 -56 370 -8 66 -17
134 -19 150 -3 17 -8 55 -11 86 l-7 55 -136 22 c-219 36 -486 87 -632 122
-230 55 -452 114 -469 124 -6 4 -33 -27 -65 -77z m148 25 c3 -5 -8 -6 -25 -4
-16 2 -29 6 -29 8 0 8 49 4 54 -4z m51 -12 c3 -5 1 -10 -4 -10 -6 0 -11 5 -11
10 0 6 2 10 4 10 3 0 8 -4 11 -10z m-315 -324 c0 -3 -4 -8 -10 -11 -5 -3 -10
-1 -10 4 0 6 5 11 10 11 6 0 10 -2 10 -4z m-24 -52 c-4 -9 -9 -15 -11 -12 -3
3 -3 13 1 22 4 9 9 15 11 12 3 -3 3 -13 -1 -22z m-25 -47 c-10 -9 -11 -8 -5 6
3 10 9 15 12 12 3 -3 0 -11 -7 -18z m-106 -967 c3 -5 1 -10 -4 -10 -6 0 -11 5
-11 10 0 6 2 10 4 10 3 0 8 -4 11 -10z m1205 -40 c-8 -5 -19 -10 -25 -10 -5 0
-3 5 5 10 8 5 20 10 25 10 6 0 3 -5 -5 -10z m-814 -158 c-9 -8 -57 8 -51 18 3
6 16 5 30 -2 14 -6 23 -13 21 -16z m239 18 c-27 -12 -43 -12 -25 0 8 5 22 9
30 9 10 0 8 -3 -5 -9z m-95 -4 c0 -2 -7 -7 -16 -10 -8 -3 -12 -2 -9 4 6 10 25
14 25 6z"/>
<path d="M10528 6135 c-8 -8 -519 -120 -723 -159 -239 -45 -491 -86 -526 -86
-31 0 -33 -4 -49 -100 -23 -137 -113 -564 -161 -768 -28 -117 -49 -214 -48
-215 2 -1 34 -16 70 -34 l67 -32 22 24 c58 62 191 88 285 56 86 -30 163 -129
179 -232 l6 -35 188 -47 c276 -69 346 -80 517 -80 166 -1 231 12 342 64 70 34
159 123 193 196 43 91 53 158 47 303 -12 278 -105 583 -299 983 -74 150 -93
179 -110 162z m22 -40 c10 -12 9 -15 -4 -15 -11 0 -14 5 -10 12 5 8 2 9 -9 5
-10 -3 -17 -2 -17 3 0 15 26 12 40 -5z m-1450 -1109 c0 -3 -4 -8 -10 -11 -5
-3 -10 -1 -10 4 0 6 5 11 10 11 6 0 10 -2 10 -4z m1145 -525 l40 -9 -35 0
c-19 0 -57 3 -85 8 l-50 7 45 1 c25 1 63 -3 85 -7z"/>
<path d="M6300 5848 c0 -24 50 -393 70 -517 38 -232 110 -603 141 -725 132
-514 207 -731 359 -1041 93 -191 150 -283 249 -407 124 -155 256 -256 386
-293 159 -47 338 26 511 208 88 92 195 234 266 352 93 155 249 492 336 725 48
129 138 407 162 498 6 24 13 49 16 56 3 8 -26 29 -78 56 -326 170 -913 539
-1131 710 -25 20 -30 21 -45 8 -9 -8 -48 -33 -87 -56 -38 -23 -126 -79 -195
-124 -192 -125 -397 -245 -592 -346 -176 -92 -222 -110 -178 -72 13 11 27 20
32 20 6 0 21 9 34 19 20 16 21 20 8 25 -20 8 -9 26 16 26 10 0 31 5 47 11 28
11 28 11 6 20 -13 4 -23 14 -23 21 0 15 8 20 135 93 128 74 281 169 501 311
105 68 196 124 203 124 24 0 6 18 -86 85 -199 144 -175 132 -303 144 -248 24
-343 33 -537 57 -237 28 -223 27 -223 12z m40 -44 c0 -8 -4 -12 -10 -9 -5 3
-10 10 -10 16 0 5 5 9 10 9 6 0 10 -7 10 -16z m240 2 c0 -3 -4 -8 -10 -11 -5
-3 -10 -1 -10 4 0 6 5 11 10 11 6 0 10 -2 10 -4z m-235 -36 c3 -5 1 -10 -4
-10 -6 0 -11 5 -11 10 0 6 2 10 4 10 3 0 8 -4 11 -10z m22 -207 c-3 -10 -5 -2
-5 17 0 19 2 27 5 18 2 -10 2 -26 0 -35z m1052 -2 c-6 -2 -21 6 -33 19 l-21
21 32 -18 c18 -10 28 -20 22 -22z m-239 -151 c0 -5 -2 -10 -4 -10 -3 0 -8 5
-11 10 -3 6 -1 10 4 10 6 0 11 -4 11 -10z m-100 -64 c0 -2 -7 -7 -16 -10 -8
-3 -12 -2 -9 4 6 10 25 14 25 6z m735 -66 c3 -5 1 -10 -4 -10 -6 0 -11 5 -11
10 0 6 2 10 4 10 3 0 8 -4 11 -10z m-1299 -325 c-11 -8 -27 -15 -35 -15 -9 1
-2 7 14 15 39 18 44 18 21 0z m1844 -21 c0 -2 -9 0 -20 6 -11 6 -20 13 -20 16
0 2 9 0 20 -6 11 -6 20 -13 20 -16z m-1810 -4 c0 -5 -7 -10 -16 -10 -8 0 -12
5 -9 10 3 6 10 10 16 10 5 0 9 -4 9 -10z m2077 -692 c-3 -8 -6 -5 -6 6 -1 11
2 17 5 13 3 -3 4 -12 1 -19z m-1900 -270 c-3 -8 -6 -5 -6 6 -1 11 2 17 5 13 3
-3 4 -12 1 -19z m1754 -91 c-10 -9 -11 -8 -5 6 3 10 9 15 12 12 3 -3 0 -11 -7
-18z m-1687 -52 c-4 -8 -7 -15 -9 -15 -2 0 -5 7 -9 15 -3 9 0 15 9 15 9 0 12
-6 9 -15z m1636 -79 c0 -3 -4 -8 -10 -11 -5 -3 -10 -1 -10 4 0 6 5 11 10 11 6
0 10 -2 10 -4z m-238 -418 c-8 -8 -9 -4 -5 13 4 13 8 18 11 10 2 -7 -1 -18 -6
-23z m-53 -80 c-8 -14 -14 -18 -17 -10 -4 13 17 46 25 38 3 -2 -1 -15 -8 -28z
m-48 -61 l-24 -22 19 27 c10 14 21 24 23 22 3 -3 -6 -15 -18 -27z m-241 -232
c0 -2 -10 -9 -22 -15 -22 -11 -22 -10 -4 4 21 17 26 19 26 11z m-263 -81 c-3
-3 -12 -4 -19 -1 -8 3 -5 6 6 6 11 1 17 -2 13 -5z"/>
<path d="M8985 5850 c-27 -4 -97 -13 -155 -19 -58 -7 -141 -16 -185 -21 -131
-16 -562 -50 -625 -50 -37 0 -60 -4 -63 -13 -2 -7 -36 -30 -75 -51 -38 -21
-84 -51 -101 -66 l-30 -28 -43 29 c-24 16 -50 28 -58 28 -13 -1 -13 -1 0 -6 8
-3 33 -20 55 -38 76 -61 501 -341 762 -502 146 -90 362 -213 373 -213 12 0
117 465 175 775 14 77 29 150 32 163 3 12 1 21 -3 21 -5 -1 -31 -5 -59 -9z
m-158 -46 c-3 -3 -12 -4 -19 -1 -8 3 -5 6 6 6 11 1 17 -2 13 -5z m-856 -341
c13 -16 12 -17 -3 -4 -10 7 -18 15 -18 17 0 8 8 3 21 -13z m76 -43 c14 -11 21
-20 16 -20 -6 0 -20 9 -33 20 -13 11 -20 20 -16 20 4 0 19 -9 33 -20z m93 -60
c0 -5 -2 -10 -4 -10 -3 0 -8 5 -11 10 -3 6 -1 10 4 10 6 0 11 -4 11 -10z m150
-100 c0 -5 -7 -7 -15 -4 -8 4 -15 8 -15 10 0 2 7 4 15 4 8 0 15 -4 15 -10z
m536 -327 c-10 -10 -19 5 -10 18 6 11 8 11 12 0 2 -7 1 -15 -2 -18z"/>
<path d="M7485 5752 c2 -3 32 -21 65 -42 62 -38 106 -43 117 -14 3 8 17 14 32
15 22 0 23 2 7 8 -32 13 -6 19 84 20 98 2 138 6 147 15 4 3 -98 5 -225 4 -128
-1 -230 -3 -227 -6z m194 -28 c2 -2 -26 -4 -62 -4 -37 0 -67 4 -67 10 0 9 118
3 129 -6z"/>
</g>
</svg>
